<svg width="565" height="571" xmlns="http://www.w3.org/2000/svg" xmlns:xlink="http://www.w3.org/1999/xlink" xml:space="preserve" overflow="hidden"><g transform="translate(-1189 -368)"><path d="M1212 653.5C1212 508.525 1328.18 391 1471.5 391 1614.82 391 1731 508.525 1731 653.5 1731 798.475 1614.82 916 1471.5 916 1328.18 916 1212 798.475 1212 653.5Z" stroke="#8E0000" stroke-width="45.8333" stroke-miterlimit="8" fill="none" fill-rule="evenodd"/><path d="M1435 503.5C1435 483.342 1451.34 467 1471.5 467L1471.5 467C1491.66 467 1508 483.342 1508 503.5L1508 657.5C1508 677.659 1491.66 694 1471.5 694L1471.5 694C1451.34 694 1435 677.658 1435 657.5Z" fill="#8E0000" fill-rule="evenodd"/><path d="M1435 784C1435 763.565 1451.34 747 1471.5 747 1491.66 747 1508 763.565 1508 784 1508 804.434 1491.66 821 1471.5 821 1451.34 821 1435 804.434 1435 784Z" fill="#8E0000" fill-rule="evenodd"/></g></svg>