<svg width="463" height="395" xmlns="http://www.w3.org/2000/svg" xmlns:xlink="http://www.w3.org/1999/xlink" xml:space="preserve" overflow="hidden"><defs><clipPath id="clip0"><rect x="1929" y="1272" width="463" height="395"/></clipPath></defs><g clip-path="url(#clip0)" transform="translate(-1929 -1272)"><path d="M2326.23 1286.5C2338.54 1270.46 2361.53 1267.45 2377.56 1279.76L2377.56 1279.76C2393.6 1292.08 2396.62 1315.07 2384.3 1331.1L2143.96 1644.03C2131.64 1660.06 2108.65 1663.08 2092.62 1650.76L2092.62 1650.76C2076.58 1638.44 2073.57 1615.46 2085.88 1599.42Z" fill="#4CAF50" fill-rule="evenodd"/><path d="M0 36.6128C-8.07805e-15 16.3921 16.3922 0 36.6129 0L36.6129 0C56.8336-8.07803e-15 73.2258 16.3921 73.2258 36.6128L73.2258 217.187C73.2258 237.408 56.8336 253.8 36.6129 253.8L36.6129 253.8C16.3922 253.8 0 237.408 0 217.187Z" fill="#4CAF50" fill-rule="evenodd" transform="matrix(-0.627757 0.77841 0.77841 0.627757 1960.49 1465.26)"/></g></svg>