<svg width="565" height="571" xmlns="http://www.w3.org/2000/svg" xmlns:xlink="http://www.w3.org/1999/xlink" xml:space="preserve" overflow="hidden"><g transform="translate(-1869 -1224)"><path d="M2155.55 1629.06C2142.63 1644.62 2119.54 1646.75 2103.99 1633.83L2103.99 1633.83C2088.44 1620.91 2086.3 1597.83 2099.22 1582.27L2244.45 1407.43C2257.37 1391.88 2280.46 1389.74 2296.01 1402.66L2296.01 1402.66C2311.57 1415.58 2313.7 1438.67 2300.78 1454.22Z" fill="#4CAF50" fill-rule="evenodd"/><path d="M0 36.613C-1.23617e-14 16.3922 16.3922 0 36.613 0L36.613 0C56.8338-6.18085e-15 73.226 16.3922 73.226 36.613L73.2258 157.581C73.2258 177.801 56.8336 194.194 36.6128 194.194L36.613 194.193C16.3922 194.193 0 177.801 0 157.58Z" fill="#4CAF50" fill-rule="evenodd" transform="matrix(-0.627757 0.77841 0.77841 0.627757 2023.23 1478.32)"/><path d="M1892 1509.5C1892 1364.53 2008.18 1247 2151.5 1247 2294.82 1247 2411 1364.53 2411 1509.5 2411 1654.47 2294.82 1772 2151.5 1772 2008.18 1772 1892 1654.47 1892 1509.5Z" stroke="#4CAF50" stroke-width="45.8333" stroke-miterlimit="8" fill="none" fill-rule="evenodd"/></g></svg>